<svg xmlns="http://www.w3.org/2000/svg" viewBox="0 0 693.67 505.6"><defs><style>.cls-1{fill:#515151;opacity:0.47;}.cls-2{fill:#f9f9f9;}.cls-3{fill:#f2f2f2;}.cls-4{fill:#f8f8f8;}.cls-5{fill:#efefef;}</style></defs><g id="Layer_2" data-name="Layer 2"><g id="_ÎÓÈ_2" data-name="—ÎÓÈ_2"><path class="cls-1" d="M48.65,19.13s-8.59,40.06,8.58,48.65C64.91,71.62,74.4,96.39,80.12,105S63,145,65.82,159.35s-5.73,63-17.17,74.4S17.17,256.64,20,265.23s2.86,37.2,0,48.64,22.89,22.9,22.89,37.21-37.2,34.33-37.2,34.33L0,411.17s11.45,8.58,11.45,20S0,462.68,0,462.68s37.2,5.72,48.65,11.44,40.06,17.17,48.64,8.59,22.9-2.86,22.9-2.86,8.58,22.89,28.61,20,28.62-8.59,37.2-8.59S217.48,497,217.48,497l25.76,2.86,17.17-11.45L271.85,497s45.79-17.17,54.37-20,11.45-11.45,37.2-2.87,63,31.48,80.13,31.48,42.92-2.86,42.92-2.86,22.9-17.17,31.48-14.31c18.21,6.07,37.2,8.59,57.23,11.45s60.1,11.45,65.82-11.45,28.62-45.78,28.62-45.78l-14.31-37.2s-25.76-25.76-5.73-31.48,45.79-14.31,25.76-31.48-37.2-40.06-37.2-40.06,8.58-83,17.17-100.16,22.89-22.89,14.31-34.34-8.59-20-8.59-20-5.72-8.58,5.72-25.75,8.94-27.09,2.87-37.2c-8.59-14.31,0-45.79,0-45.79S643.86,7.68,632.41,16.27s-51.5,14.31-51.5,14.31C569.46,19.13,546.57,22,546.57,22L535.12,42S446.88,87.57,420.66,93.53c-32.7,7.43-120.19,0-154.53-14.31-28.08-11.7-48.65-14.3-68.68-22.89s-20-25.75-37.2-20S120.19,42,103,33.44,48.65,19.13,48.65,19.13Z"/><path class="cls-2" d="M59.74,4.35S51.15,44.41,68.32,53C76,56.83,85.49,81.61,91.21,90.19S74,130.26,76.91,144.56s-5.73,63-17.17,74.41-31.48,22.89-28.62,31.47,2.86,37.2,0,48.65S54,322,54,336.29s-37.2,34.34-37.2,34.34l-5.72,25.75s11.44,8.59,11.44,20-11.44,31.47-11.44,31.47,37.2,5.73,48.65,11.45,40.06,17.17,48.64,8.58,22.9-2.86,22.9-2.86,8.58,22.9,28.61,20,28.62-8.58,37.2-8.58,31.48,5.72,31.48,5.72l25.75,2.86,17.17-11.44,11.45,8.58s45.79-17.17,54.37-20,11.45-11.44,37.2-2.86,63,31.48,80.13,31.48S497.56,488,497.56,488s22.89-17.17,31.48-14.31c18.21,6.07,37.2,8.58,57.23,11.44s60.09,11.45,65.82-11.44,28.61-45.79,28.61-45.79l-14.3-37.2s-25.76-25.75-5.73-31.48,45.79-14.3,25.76-31.47-37.2-40.07-37.2-40.07,8.58-83,17.17-100.15,22.89-22.9,14.3-34.34-8.58-20-8.58-20-5.72-8.59,5.72-25.76,8.93-27.08,2.86-37.2c-8.58-14.31,0-45.78,0-45.78S655-7.1,643.5,1.48,592,15.79,592,15.79c-11.44-11.44-34.34-8.58-34.34-8.58l-11.44,20S458,72.79,431.74,78.75c-32.7,7.43-120.18,0-154.52-14.31-28.08-11.7-48.65-14.31-68.68-22.89s-20-25.76-37.2-20-40.06,5.73-57.23-2.86S59.74,4.35,59.74,4.35Z"/><path class="cls-3" d="M76.38,24.16c-3.5,17.14,12.71,31,24.1,44.26s15.69,38.93-1,44.06c8,1.69,9.62,13.22,5.63,20.41s-11.22,12-15.76,18.88c-15.82,23.87,4.74,63.74-18,81.19-6.28,4.82-14.53,6.35-21.13,10.74-14.67,9.75-17,31.45-10,47.62s21,28.08,34.48,39.4A208.23,208.23,0,0,1,24.78,393l.92,29c20.76.79,36.9,20.2,56.93,28.79,6.67,2.85,18.76-9.5,25.75-11.45,5.7-1.59,45.67,26.73,51.51,25.75,34.34-5.72,91.57,2.86,91.57,2.86s65.63-1.59,85.85-28.61c38.58-.58,57.23,14.31,93.2,32.27,15.54-6.52,38.43-.79,49.88,7.79,14.31-14.31,32.68-26.14,51.51-22.89s29.75,14.29,48.65,11.44c8.75-1.31,21.52-11.38,30.37-11.58s18.91,4.63,20.28,13.38l32.49-29.65-16.11-23.13a46.64,46.64,0,0,0-13.74-41.62c6.8-24.72,31.47-33.17,29.69-41.89s-6.57-17.35-13.81-22.52c-20.53-14.68-21-27.83-20.53-51.88,20-28.62,22-46.3,23.31-80.13S667.75,104.34,655,73c3.69-15.22-12.28-36.28-8.59-51.51-21.78,4.7-58.16,14.34-77.26,2.87-55.5,40.65-77.58,61-145.94,68.67-38.94,4.4-101.85,5.12-137.36-11.44-16-7.48-36.68-25.07-54.37-25.76-10.76-.41-27.32,11.63-35.46,4.58-6.67-5.77-7.66-16.26-14.37-22-8.47-7.22-21.18-3.63-32.07-1.37a106.06,106.06,0,0,1-75-12.53Z"/><path class="cls-4" d="M268.63,144.56c-4.16-18-32.83-24-46.12-37.21,6.37-4.71,8.38-11.69,17.21-15-15-11.32-14-22.2-4.78-36.14a32.58,32.58,0,0,0-3.51-.35c-10.76-.41-27.32,11.63-35.46,4.58-6.67-5.77-7.66-16.26-14.37-22-8.47-7.22-21.18-3.63-32.07-1.37a103.54,103.54,0,0,1-22,2.12C121.88,50,111.24,59.06,98.83,66.54c.56.63,1.11,1.25,1.65,1.88,11.39,13.27,15.69,38.93-1,44.06,8,1.69,9.62,13.22,5.63,20.41-3.47,6.24-9.39,10.72-13.86,16.29,8.31,8.59,15.66,17.3,20.94,26.57,5.36,9.43,3.5,28.5,8.12,42.6,6.62,20.2,2.61,29.65-11.9,51.83-4.52.35-9.47,3.29-13.9,3.58,15.37,15.42,66.69,67.81,37.61,82,1.86,5.82-.9,15.65,1,21.33a33.56,33.56,0,0,1-6.81,2.18c4.63,6.22,4.11,17,7.9,23-5.25,2.23-9.28,9.11-14.47,11.3,5.7,10,6.62,21.48,5.37,33.1,13.7,7.84,31.09,19,34.78,18.35,17.93-3,42.08-2.07,61.08-.52,4.32-11.3-1.38-6.55-2.74-19.66-1.4-13.53,2.42-26.27-15.41-28.82,5.08-11.14,9.57-20.87,7-32.42-2.49-11.3-25.46-22.4-24.42-34.34,1.65-19,53.15-35.78,25.91-61.09,7-2.77,13.32-12,19.56-14.79A65.78,65.78,0,0,0,206,258.53c16-8,46-17.55,56.95-32.65,7.38-10.22.46-19.72,10.55-29.86-3.06-1.23-6.66-4.92-10.36-6.24C268.71,179.48,271.71,157.91,268.63,144.56Z"/><path class="cls-4" d="M423.16,93.05C390.5,96.74,341,97.8,304.94,88.28c2.45,5.77,7.84,10.62,12.37,15.33,6.17,6.4,11.35,16.69,5.83,23.67,4.29-2.23,9.8.23,12.6,4.16s3.56,8.92,4.24,13.7l4.38,30.78,9.85-2.47q.24,22.76.49,45.51a164.58,164.58,0,0,0,73.63-48.51,14.27,14.27,0,0,0,8.84,9.1c10.74-5.78,10.88-26.77,23-26,2.18.14,4.27,1.12,6.45,1,9.86-.63,6.53-18.76,15.22-23.48,2.57-1.4,5.72-1.26,8.39-2.44,5.34-2.36,7.09-8.93,8.2-14.66l9-46.55C484.53,80.68,460.9,88.79,423.16,93.05Z"/><path class="cls-5" d="M647.58,416.94a46.61,46.61,0,0,0-13.74-41.62c6.8-24.72,31.47-33.17,29.69-41.89a39.18,39.18,0,0,0-8.41-17.51c-12.58,2.12-23.81,7.24-31.37,17.61s-13.19,26.61-26,25.7c-7.52-.53-14.25-7.6-21.5-5.56-4.45,1.25-7.23,5.55-9.47,9.59-7.72,13.91-14,28.9-24.65,40.71-14.44,16-30.49,11-46.14,19.48-12.17,6.57-29.34,25.6-37.2,37.21q-2.79,4.13-5.41,8.59c10.41,1.32,20.55,5.26,27,10.12,14.31-14.31,32.68-26.14,51.51-22.89s29.75,14.29,48.65,11.44c8.75-1.31,21.52-11.38,30.37-11.58s18.91,4.63,20.28,13.38l32.49-29.65Z"/><path d="M142.1,172.12h1.48a12.55,12.55,0,0,1,11.07,6.06v.89c0,2-1.47,3.27-4.43,3.69h-.59q-3.06-3.84-5.17-3.84H143c-3.21,0-5.81,2.21-7.83,6.64a13.08,13.08,0,0,0-.89,4.88,18.32,18.32,0,0,0,2.95,8.42,11.94,11.94,0,0,0,8.57,3.69c3.45,0,5.52-1.57,6.21-4.73l.14-1.33c0-3.34-1.42-5-4.28-5-1.48.84-2.22,1.68-2.22,2.51v.45l.45,1.77a5.09,5.09,0,0,1-4.43,2.22q-3.25,0-3.25-3.11l-.15-1.92q0-5.79,5.76-8.12a9.6,9.6,0,0,1,4.13-.74h.6q7,0,9.45,6.5a26,26,0,0,1,1,5.91q0,9.12-9.15,12.7a18.24,18.24,0,0,1-4.29.59h-1.48q-11.22,0-15.8-12.41a31.16,31.16,0,0,1-1.33-8A18.41,18.41,0,0,1,134,175.22C137.2,173.16,139.91,172.12,142.1,172.12Z"/><path d="M193.1,166.81h.44a6.74,6.74,0,0,1,4.87,2.21v1.33q-.66,9.45-3.84,9.45l-1,.15c-.64,0-1.28-1-1.92-2.95l-.89-.3q-3.39.63-3.39,5v.74h.14a9.43,9.43,0,0,1,3.84-.74h.89q5.06,0,8,6.21a12.58,12.58,0,0,1,.88,4.58v.74q0,7.33-7.24,13.29a24.27,24.27,0,0,1-13,3.69h-1.33q-10.63,0-16.84-8c-1.68-3.08-2.51-5.54-2.51-7.39v-1.33q0-8.41,7.83-11.08l1.77-.15a4.6,4.6,0,0,1,2.51.89,4.83,4.83,0,0,0,.29-1.92v-.44c-.14-1.87-.73-2.81-1.77-2.81q-5.65,0-6.79,4a3.38,3.38,0,0,1-2.22,1h-.29q-1.49-1.44-1.48-5.17v-.59q0-5.28,1.33-6,1.18-1.08,5-1.63a4.25,4.25,0,0,1,.44,2.22l-.14.74h.14a10.74,10.74,0,0,1,5.47-2.07q6.19,0,7.24,10.63l.14,1.33q-.56,8.06-3.1,9.46l-2.66.44c-.54,0-1.42-.79-2.66-2.36l-1-.3h-.29q-3,.48-3,3.1v.59q0,4.8,7.24,8.13a20,20,0,0,0,5.76.88h1.33q7.86,0,11.08-7.53l.29-2.22v-.44c0-2-.59-3.4-1.77-4.13l-.74-.15H190c-1.37,0-2.61,1.13-3.69,3.4a4.84,4.84,0,0,1-2.21.73c-1.68,0-2.52-.73-2.52-2.21a29.87,29.87,0,0,1-.73-5.91q.28-10.2,6.5-13.15l2.36-.44h1.48v-.44C191.54,167.84,192.18,166.81,193.1,166.81Z"/><path d="M209.57,173h1.18q4.55,0,7.24,5.32a19.84,19.84,0,0,1,1,5.76q0,10.74-14,26.14h-2.22a5.08,5.08,0,0,1-4.43-2.07q11.6-13.95,12.85-17.57a20.87,20.87,0,0,0,1.63-6.65c-.3-2.17-1.14-3.25-2.52-3.25q-2.36.63-2.36,4.14l.44,3.25a9.42,9.42,0,0,1-4.28,1.32h-1.18c-1,0-1.48-.64-1.48-1.92a10.42,10.42,0,0,1-.44-3.39v-.89q0-6.8,6.5-9.75A5,5,0,0,1,209.57,173Z"/><path d="M239.66,145.24q10.53,0,19.79,12.26l.45,1.92q-.7,4.14-3.69,4.14h-.6c-1.1,0-2.14-.79-3.1-2.37q-8.31-7.83-13.73-7.83h-.15a6.17,6.17,0,0,0-6.06,4.14l-.29,1.33a5.35,5.35,0,0,0,1,2.95,24.84,24.84,0,0,1,7.83-1.18q13.14,0,22.16,12.26a27.77,27.77,0,0,1,4.28,14.33v1.92q0,7.57-5,15.66-4.69,4.88-9.9,4.87-5,0-8.42-5.17H244q-3.88,5.76-9,5.76-6,0-8.71-7.53v-.44h-.3a5.94,5.94,0,0,1-2.51,1.18,5.83,5.83,0,0,1-3.25-5.32v-.74c0-1.43,1.14-2.41,3.4-2.95L236,189a4.29,4.29,0,0,0,.89-2.21v-.59c0-1.09-.89-1.63-2.66-1.63q-.75,3.69-3.25,3.69l-1.92.3a6.75,6.75,0,0,1-1.63-4.58q0-2.55,2.07-7.53c2.09-1.28,3.72-1.92,4.87-1.92,1.78.22,2.66,1,2.66,2.36l-.29,1h.15a6,6,0,0,1,3.24-1H241q3.4,0,5.47,5.91l.14,1.62q0,5.55-8.56,11.08l-5.17,4.14a3.64,3.64,0,0,0,3.39,2.21q2.67,0,7.09-7.38a3.6,3.6,0,0,1,2.37-1.18h.59c1.7,0,2.93,1.32,3.69,4,1.16,1.78,2.19,2.66,3.1,2.66h.3c2.21,0,3.84-2.26,4.87-6.79l.3-3.7q0-10.26-4.43-14.47A19.85,19.85,0,0,0,240,169.17q-7.58,0-12.85,6.79l-1.63,1.63h-2.07q-3.69,0-3.69-3.69v-.3q0-3.18,6.35-8.27v-.15a16.05,16.05,0,0,1-1.62-6.65q0-7.46,7.09-11.67A23.2,23.2,0,0,1,239.66,145.24Z"/><path d="M290.33,160.6q10,0,18.31,7.68,8.13,8.39,8.13,18.91v1.92q0,7.6-5,15.66-4.61,4.88-9.89,4.87-5,0-8.42-5.17h-.3q-3.79,5.76-9,5.76-6.09,0-8.71-7.68v-.29h-.3a5.94,5.94,0,0,1-2.51,1.18,5.81,5.81,0,0,1-3.25-5.32v-.74q0-2.22,3.55-2.95L285,189.11a4,4,0,0,0,1-2.36v-.59c0-1-.79-1.51-2.36-1.63-.37,0-.67.64-.89,1.92q-.69,1.92-3.84,1.92l-.74.15a6.79,6.79,0,0,1-1.62-4.58c.81-5.52,2-8.27,3.54-8.27a5.35,5.35,0,0,1,3.11-1H284c1.48.18,2.22.91,2.22,2.22l-.3,1H286a6,6,0,0,1,3.25-1h.45q4,0,5.9,6.06l.15,1.47q0,5.48-7.68,10.34l-6.06,4.88c.87,1.47,1.9,2.21,3.11,2.21,2.06,0,4.53-2.46,7.38-7.38a3.6,3.6,0,0,1,2.37-1.18h.59c1.69,0,2.93,1.32,3.69,4,1.16,1.78,2.19,2.66,3.1,2.66h.3q3.44,0,5-7.38l.15-3.11q0-10.26-4.44-14.47a19.81,19.81,0,0,0-14-5.76q-7.76,0-13,6.79l-1.62,1.63h-1.92q-3.84,0-3.84-3.69v-.3q0-3.58,7.38-8.86A25.42,25.42,0,0,1,290.33,160.6Z"/><path d="M330.69,163.15h.59q5.36,0,8.57,8.12l.29,2.81a16.45,16.45,0,0,1,6.35-1.33q7.17,0,11.23,12a26.41,26.41,0,0,1,.89,6.65v2.07a48.16,48.16,0,0,1-3.55,16.84,10,10,0,0,1-4.58,1.33h-.15c-2.06-.27-3.1-.91-3.1-1.92q4.29-10.12,4.29-17.14v-1.62q0-7.2-5.62-9.46a8.94,8.94,0,0,0-3.1-.59h-.15c-3.35.92-5,1.95-5,3.11q6.24,0,8,9.74a15.84,15.84,0,0,1,.29,3.84v1.33q0,8.54-5.91,11.08l-2.95.3c-2.68,0-4.46-1.48-5.32-4.43h-.15c-1.1,2.95-2.93,4.43-5.46,4.43h-.89q-4.91,0-7.24-6.65l-.14-1.48v-1q0-3.69,4.72-10.93V190c-1.77,0-2.65-.49-2.65-1.48l-.15-1.32v-.6c0-2.16.69-3.25,2.07-3.25q1.44,0,9.74-5a12.78,12.78,0,0,0,.6-3.25v-.88q-.3-2.37-2.07-2.37c-1.5,0-2.54,2.57-3.1,7.68h-.3q-7.09-.61-7.09-1.92a7.7,7.7,0,0,1-.89-4,5.69,5.69,0,0,1,1.48-4.29h.3a5.42,5.42,0,0,1,2.8,1.18Q325.49,163.15,330.69,163.15Zm.44,22.86q0,1.22,2.66,4l.3,1.33v.29c0,1.67-1.19,2.76-3.55,3.25A3.47,3.47,0,0,1,328,194q-3.25,1.23-3.25,5.91c.52,1.09,1.11,1.63,1.77,1.63,1.18,0,1.77-1,1.77-3v-1.33c.28-.59,1.7-.88,4.29-.88,1.57,0,2.36.29,2.36.88q.81,4.72,2.37,4.73c1.47,0,2.31-1.13,2.51-3.4v-.74c-.4-6.1-1.28-9.15-2.66-9.15,0-.2-1.18-.45-3.55-.74q-1.62-1.34-1.62-2.37C331.43,185.61,331.13,185.76,331.13,186Z"/><path d="M349.11,147.31h.74c2.56,0,3.84.88,3.84,2.66q.88,10.36.89,15.51,0,7.53-1.33,7.53l-2.66.89h-.29c-1.19,0-2.27-.84-3.25-2.52l-.74-22.45C346.6,147.85,347.54,147.31,349.11,147.31Z"/><path d="M400.78,167.36h.14q14.7,0,21.72,13a25,25,0,0,1,2.66,11.08v1.18q0,11.37-10.05,18.91a33.89,33.89,0,0,1-6.05,2.95v.15c1.77.59,2.65,1.52,2.65,2.8l.15.74q0,7.32-12.85,10.05l-4,.29h-.29q-6.72,0-7.83-4.43v-.74c0-1.26.74-2.39,2.22-3.4a30.74,30.74,0,0,0,7.53,1.33q5-.21,5-2.21v-.15a4.85,4.85,0,0,0-1.33-2.66l-2.51.15h-.3q-4,0-4-2.81c0-1.94,1.38-3.62,4.13-5a39.17,39.17,0,0,0,11.82-2.21A10.52,10.52,0,0,0,415.1,201a30.11,30.11,0,0,0,2.22-10.79q0-9.81-8.71-13.73a19.87,19.87,0,0,0-6.95-1.33q-7.94,0-13.44,6.65a12,12,0,0,0-2.21,7.09v.14q0,7.88,6.64,10.93a10.14,10.14,0,0,0,2.66.45h1q4.9,0,8.27-4.58a5.62,5.62,0,0,0,.88-2.66v-.15h-.14q-1,2.81-5,4.58l-2.66.44q-6.45,0-8.71-6.79l-.15-1.48q0-4.32,4.43-7.38a15.15,15.15,0,0,1,7.09-1.63q8.76,0,11.08,9.16l.15,1.33v1.18q0,6.9-6.35,11.52a16.41,16.41,0,0,1-9,2.51h-.59q-10.23,0-15.22-8.12a18.55,18.55,0,0,1-2.07-8.13v-1.62q0-9,7.83-16.25A21.9,21.9,0,0,1,400.78,167.36ZM394.24,188a3.28,3.28,0,0,0,1.92,3.1,4.06,4.06,0,0,0,1.92.45q3.69-.48,3.69-3.7c-.41-2.36-1.55-3.54-3.39-3.54q-4.14.41-4.14,3.4Z"/><path d="M441.25,166.07a8.64,8.64,0,0,1,7.53,4.28,10.58,10.58,0,0,1,8-3.1q5.76,0,8.42,5.61a15.81,15.81,0,0,1,2.36,8.42v1q0,6.87-5.32,9.16l-2.06.3h-.74a9.3,9.3,0,0,0-6.35-2.81h-1q-5.38,0-8.27,5.47a10,10,0,0,0-.44,2.66q0,6.32,8.86,12.26c1.18.78,3.5,1.52,6.94,2.21q5.76.56,5.76,1.63a2.15,2.15,0,0,1,.59,1.62v.44c0,1.73-.64,2.76-1.92,3.11l-1.77.14h-.89l-.14,1.48v.44a3.77,3.77,0,0,0,2.95,3.84,8.34,8.34,0,0,0,2.66.45,15.31,15.31,0,0,0,5.17-1c1.58.72,2.36,1.65,2.36,2.81v.15c0,2.76-2.51,4.13-7.53,4.13-4.16,0-7.16-.88-9-2.66q-4.43-3.65-4.43-8.12v-2.66q-16.25-7.15-16.25-20.68,0-8.12,8.42-14.18a14.77,14.77,0,0,1,6.06-1.47,19.52,19.52,0,0,1,8.71,2.51v-.15l.15-1.77q-.63-5.76-4.29-5.76H455q-3.28,0-6.06,4.57h-.3q-6.35-1.39-6.35-2.06c-.49-.67-.88-2.24-1.18-4.73l-.74-.15h-.59q-3.28,0-5.76,10.34a89.11,89.11,0,0,0-.74,13.59v3.69c0,1.09-.14,1.63-.44,1.63H431.5c-1.38,0-3-1-4.87-3.1v-3.84q0-23.53,11.52-29.1A10.31,10.31,0,0,1,441.25,166.07Z"/><path d="M501.44,166.81h.44a6.76,6.76,0,0,1,4.88,2.21v1.33q-.66,9.45-3.84,9.45l-1,.15c-.64,0-1.28-1-1.92-2.95l-.88-.3q-3.4.63-3.4,5v.74h.15a9.43,9.43,0,0,1,3.84-.74h.89q5.06,0,8,6.21a12.59,12.59,0,0,1,.89,4.58v.74q0,7.33-7.24,13.29a24.3,24.3,0,0,1-13,3.69h-1.33q-10.64,0-16.84-8-2.5-4.62-2.51-7.39v-1.33q0-8.41,7.83-11.08l1.77-.15a4.54,4.54,0,0,1,2.51.89,4.81,4.81,0,0,0,.3-1.92v-.44c-.15-1.87-.74-2.81-1.77-2.81-3.77,0-6,1.33-6.8,4a3.36,3.36,0,0,1-2.21,1h-.3c-1-1-1.48-2.68-1.48-5.17v-.59c0-3.52.45-5.54,1.33-6q1.19-1.08,5-1.63a4.35,4.35,0,0,1,.44,2.22l-.15.74h.15a10.69,10.69,0,0,1,5.46-2.07q6.21,0,7.24,10.63l.15,1.33q-.56,8.06-3.1,9.46l-2.66.44c-.54,0-1.43-.79-2.66-2.36l-1-.3h-.3q-3,.48-2.95,3.1v.59q0,4.8,7.23,8.13a20,20,0,0,0,5.77.88h1.32q7.88,0,11.08-7.53l.3-2.22v-.44c0-2-.59-3.4-1.77-4.13l-.74-.15h-.15q-2.07,0-3.69,3.4a4.87,4.87,0,0,1-2.22.73c-1.67,0-2.51-.73-2.51-2.21a30.55,30.55,0,0,1-.74-5.91q.3-10.2,6.5-13.15l2.36-.44h1.48v-.44C499.89,167.84,500.53,166.81,501.44,166.81Z"/><path d="M525.52,144.65q10.59,0,19.79,13a7.69,7.69,0,0,1,.44,2.36c-.44,2.86-1.77,4.28-4,4.28-1.16,0-2.24-.78-3.25-2.36q-8.24-8.56-13.3-8.57H524q-3.43,0-5.46,4l-.3,1.18v1.33a5.58,5.58,0,0,0,1.63,3.4,16.25,16.25,0,0,1,6.94-1.62h1.62a19.8,19.8,0,0,1,15.81,7.53q7.08,8.27,7.09,17.28v1.77q0,12.45-13,20.09a19.19,19.19,0,0,1-8.27,1.92q-10.46,0-18-10.49a22.37,22.37,0,0,1-2.07-8.41v-1.78q0-6.68,8-10.34a17.56,17.56,0,0,1,5.17-.88H524q4.8,0,8.13,5.31a7.32,7.32,0,0,1,.73,2.52c0,1-.64,1.6-1.92,1.77a2.8,2.8,0,0,0-1.33,2.21c0,1.43.94,2.32,2.81,2.66h.59c1.31,0,2.19-1.18,2.66-3.54,0-.89-.84-2-2.51-3.25l-.3-2.51q.71-4.29,2.66-4.29a5.76,5.76,0,0,1,5.76,3.84,16.65,16.65,0,0,1,1,5.17q0,6.94-6.35,10.49a11.06,11.06,0,0,1-4.73,1q-7.35,0-10-7.09l-.14-1.47c0-1.48.83-3.15,2.51-5l-.74-.15h-.15q-3.21,0-4.73,5l-.14,1q0,4.47,6.2,9a15.69,15.69,0,0,0,6.5,1.48q5.61,0,10.64-5.61a15.2,15.2,0,0,0,3.25-9.9q0-9.42-9-15.66a16.24,16.24,0,0,0-7.82-2.21c-3.55,0-5.86,1.13-7,3.4a17.48,17.48,0,0,0-1.33,4.43,4.69,4.69,0,0,1-3.25,1.33h-.88q-3,0-3-4.29v-.14a11.28,11.28,0,0,1,1.48-5.17,14.8,14.8,0,0,1-3.25-9.46v-1q0-7.73,7.39-12.11A22.76,22.76,0,0,1,525.52,144.65Z"/><path d="M192.36,253.57q6.16,0,7.38,7.68l.15,1.92v1.48l-.15.74c3.42-1.18,5.64-1.78,6.65-1.78h.3q7.81,0,10.93,8.28a31.57,31.57,0,0,1,1.77,10V285a41.14,41.14,0,0,1-3.25,15.36,7.91,7.91,0,0,1-4.43,1.33c-2.27-.24-3.4-.93-3.4-2.06q4.42-9.72,4.43-16.7v-1.32q0-7.87-6.65-10.34l-1.47-.15a12.28,12.28,0,0,0-5.76,1.92v.29q7.83,3.25,7.83,12v.88q0,4.4-4.14,10.34A13.23,13.23,0,0,1,192.5,301q-2.94,0-7.82-2.52-4-3.24-4-7.23v-1.19q0-2.51,2.51-7.23l.29-1.33V281c0-.49-.09-.73-.29-.73l-1.63.44a9.46,9.46,0,0,1-.88-4.58c0-1.67.54-2.51,1.62-2.51q3.51-.33,9-3.55a11.68,11.68,0,0,0,1.92-5.61,2,2,0,0,0-1.77-2.21c-1.72,0-2.81,2.51-3.25,7.53l-.44.15q-7.09-.78-7.09-1.78a7.37,7.37,0,0,1-.89-3.84v-1.18c.17-2.26.67-3.4,1.48-3.4l2.81.59a10.23,10.23,0,0,1,5-5.9A8.65,8.65,0,0,1,192.36,253.57Zm-.59,23.78v.44l2.06,2.22.15.15v.15a7.85,7.85,0,0,1-2.07,4.72h-.59l-.59-.15c-1.67,0-2.66,1.14-2.95,3.4q0,4.1,3.84,4.73h.29q3.56,0,7-5.32l.44-2.07q0-3.44-7.39-8.27Z"/><path d="M228,263.76h1.18q4.54,0,7.24,5.32a19.56,19.56,0,0,1,1,5.76q0,10.74-14,26.15H221.2a5.08,5.08,0,0,1-4.43-2.07q11.6-14,12.85-17.58a20.79,20.79,0,0,0,1.62-6.65c-.29-2.16-1.13-3.25-2.51-3.25q-2.35.63-2.36,4.14l.44,3.25a9.48,9.48,0,0,1-4.28,1.33h-1.18c-1,0-1.48-.64-1.48-1.92a10.22,10.22,0,0,1-.44-3.4V274q0-6.79,6.49-9.74A4.82,4.82,0,0,1,228,263.76Z"/><path d="M256,252.24a20.28,20.28,0,0,1,16,7.09q7.54,8.57,7.54,17.87v2.07q0,10.61-10.93,18.61A20.21,20.21,0,0,1,258.09,301q-9.82,0-17.58-10.05a21.77,21.77,0,0,1-2.36-8.71v-1.92q0-6.44,7.24-10.05a18.19,18.19,0,0,1,6.2-1.33q5,0,8.42,4.88a7.62,7.62,0,0,1,1,3.1q0,1.39-1.92,1.77a2.73,2.73,0,0,0-1.33,2.07c0,1.67,1.09,2.61,3.25,2.81,1.41,0,2.34-1.19,2.81-3.55,0-.84-.84-2-2.51-3.4l-.3-2.21c.42-3,1.31-4.43,2.66-4.43h.15c2.95,0,4.92,1.52,5.91,4.58a18.56,18.56,0,0,1,.74,4.57q0,7.14-7.09,10.64a14.36,14.36,0,0,1-3.84.74,10,10,0,0,1-10-6.8l-.29-1.77c0-1.6.83-3.27,2.51-5l-.15-.15h-.89q-3.44,0-4.72,5.76V283q0,4,5.76,8.57a16.1,16.1,0,0,0,6.94,1.77q5.86,0,11.08-6.2a15.63,15.63,0,0,0,2.8-9.16q0-10.63-10.48-16.69a17.17,17.17,0,0,0-6.5-1.33q-5.51,0-7.09,3.84-1,4.58-1.92,4.58a4.31,4.31,0,0,1-3,.74c-1.94,0-3-1.13-3.25-3.4v-1q0-6.72,8.13-10.93A20.78,20.78,0,0,1,256,252.24Z"/><path d="M330,235.7q11.12,0,17.58,6.94a9.46,9.46,0,0,1,1.63,4v.59q0,3-4.58,2.95c-1.87,0-2.81-.29-2.81-.88a16,16,0,0,0-7.09-5.91,18,18,0,0,0-4.73-.59h-.29q-7.39.48-7.39,3.54v.15q0,2.7,6.65,6.5,18.47,13.62,20.83,22.89a19.76,19.76,0,0,1,.74,4.88q0,10.63-12.12,17.72A25.85,25.85,0,0,1,327.22,301q-12,0-17.73-7.54l-1.62-3.25-6.95,1a4.2,4.2,0,0,1-1.77-3.7c0-2.26.84-3.39,2.51-3.39a81.34,81.34,0,0,0,15.81-5.32q6.64-2.65,6.79-3.69l.45-1.33c0-.69-.69-1.14-2.07-1.33-2.22,0-3.65.83-4.29,2.51q-1.47,3.69-4.28,3.69-5.28-1.95-8.71-7.83l-.3-1.62q0-1.67,7.39-3.7h1.33a6.18,6.18,0,0,1,1.92,2.81h.14a9.44,9.44,0,0,1,6.8-3.25h1.47q5.36,0,8.87,5.17a7.27,7.27,0,0,1,.59,2.81v.74q0,7.23-12.85,12.11l-3.84,1.92q0,1.62,4,4.43a17.31,17.31,0,0,0,5.76,1.18q10.77,0,15.51-10.93l.29-2.36q0-10.2-19.2-22.75-9.6-6.57-9.6-9.75,0-8.06,9.3-11.08A33.74,33.74,0,0,1,330,235.7Z"/><path d="M371.71,236.58q10.28,0,19.65,12.41l.3,1.77q-.56,4.14-3.7,4.14h-.14c-1.33,0-2.52-.79-3.55-2.36q-8.2-7.83-13.59-7.83h-.29a6.25,6.25,0,0,0-5.91,3.84l-.3,1.18v.59a6.29,6.29,0,0,0,.74,2.66l4.14-.44h1.18q14.43,0,21.71,17.72a27.3,27.3,0,0,1,1.33,7.83q0,9.42-8.27,18A20.4,20.4,0,0,1,371.27,301q-9.82,0-17-9.9a19.72,19.72,0,0,1-2.65-9.45q0-9.06,9.45-12l3.54-.44a14,14,0,0,1,11.82,6l.15,1.78q0,3.09-3.84,4.43h-1.33q-1.67-2.81-6.35-4.14l-1.33-.15q-2.6,0-3.69,3.11l-.3,2.06v.74q0,6.09,7.83,9.46a19.26,19.26,0,0,0,3.69.59q7.1,0,12.26-6.21a14.75,14.75,0,0,0,2.51-8.71q0-7.35-5.61-13.59-4.95-4.57-10.64-4.58h-.73q-5.43,0-7.39,5.32-.41,3.39-2.22,3.39,0,.3-1.47.3h-.59q-3.11,0-3.11-2.95l-.14-1.19a11.62,11.62,0,0,1,3.69-8.42v-.14a14.39,14.39,0,0,1-1.48-6.35v-.3q0-7.6,7.24-11.67A25.07,25.07,0,0,1,371.71,236.58Z"/><path d="M425,250.47h2.22A30.1,30.1,0,0,1,451,261.4q5.76,7.58,5.76,15.8v1.19a23.34,23.34,0,0,1-5.91,15.51,22.46,22.46,0,0,1-16.4,7.09H431.8q-8.24,0-10.93-5.77l-.3-2.21.15-1.18c-3.38,1.38-5.54,2.07-6.5,2.07a5.74,5.74,0,0,1-1.18-3.7v-.44q0-3.33,3.54-4.14,12.53-4.53,13.89-6.2a5.67,5.67,0,0,0,.88-2.36c0-1.21-.83-1.95-2.51-2.22q-4.87.59-4.87,4.58v.89a4.72,4.72,0,0,1-3.7,1.62H418.5q-1.62,0-1.62-5.76v-1.92c.29-4.7.69-7.31,1.18-7.83a3.5,3.5,0,0,1,2.21-.89h.6c2.46.28,3.69.72,3.69,1.33l-.74,3.55a12,12,0,0,1,7.53-3.1l2.66.74a11.78,11.78,0,0,1-2.95-7.83l.29-2.66h-.14a36.46,36.46,0,0,1-7.1-.74,7.84,7.84,0,0,1-1.32-3.84C423.23,251.31,424,250.47,425,250.47Zm15.66,20.09a14.21,14.21,0,0,1-4-.74,8.91,8.91,0,0,1,2.95,6.2v.74q0,5.81-7.23,10.34l-3.11,1.33-.14.59v1c0,1,.93,1.9,2.8,2.81a8.18,8.18,0,0,0,3,.59q9.08,0,12.85-12.41l.44-3.39v-1.78a15.93,15.93,0,0,0-1.48-6.35A17.73,17.73,0,0,1,440.66,270.56Zm-2.51-11.67-.15,1.77c0,2.07.79,3.1,2.36,3.1h.3l2.21-.44a22,22,0,0,0-4.57-4.43Z"/><path d="M470.94,253.9h.59q5.36,0,8.57,8.13l.29,2.8a16.63,16.63,0,0,1,6.35-1.33q7.17,0,11.23,12a26.28,26.28,0,0,1,.89,6.64v2.07A48.16,48.16,0,0,1,495.31,301a9.88,9.88,0,0,1-4.58,1.33h-.15c-2.06-.27-3.1-.91-3.1-1.92q4.29-10.11,4.29-17.13v-1.63q0-7.2-5.62-9.45a8.94,8.94,0,0,0-3.1-.59h-.15c-3.34.91-5,1.94-5,3.1q6.24,0,8,9.75a15.73,15.73,0,0,1,.29,3.84v1.33q0,8.53-5.91,11.08l-2.95.29c-2.68,0-4.46-1.48-5.32-4.43h-.14q-1.66,4.43-5.47,4.43h-.89q-4.91,0-7.23-6.65l-.15-1.47v-1q0-3.69,4.73-10.93v-.14c-1.78,0-2.66-.5-2.66-1.48L460,278v-.59c0-2.17.69-3.25,2.07-3.25q1.44,0,9.75-5a13.29,13.29,0,0,0,.59-3.25V265c-.2-1.57-.89-2.36-2.07-2.36-1.5,0-2.54,2.56-3.1,7.68H467q-7.09-.63-7.09-1.92a7.76,7.76,0,0,1-.89-4,5.65,5.65,0,0,1,1.48-4.28h.3a5.31,5.31,0,0,1,2.8,1.18Q465.74,253.91,470.94,253.9Zm.44,22.86q0,1.22,2.66,4l.3,1.33v.29c0,1.68-1.19,2.76-3.55,3.25a3.48,3.48,0,0,1-2.51-.88Q465,286,465,290.65q.78,1.62,1.77,1.62c1.18,0,1.78-1,1.78-2.95V288c.27-.59,1.69-.89,4.28-.89,1.57,0,2.36.3,2.36.89q.81,4.72,2.37,4.72c1.47,0,2.31-1.13,2.51-3.39v-.74c-.4-6.11-1.28-9.16-2.66-9.16,0-.2-1.18-.44-3.55-.74-1.08-.89-1.62-1.67-1.62-2.36C471.68,276.37,471.38,276.51,471.38,276.76Z"/><path d="M256.45,348.9q4.43,0,4.43,4.29v2.51a15,15,0,0,1-2.66,8.12l-1.92.3q-2.48,0-4.43-4.58a5.23,5.23,0,0,0-3.84-1.77h-.3q-2.25,0-3.84,2.65a10.07,10.07,0,0,0-.44,2.66v.74a7.63,7.63,0,0,1,4.72-1.77q5,0,9.75,5.61a18,18,0,0,1,2.37,9q0,9.57-7.09,14a14.3,14.3,0,0,1-5.62,1h-1q-6.47,0-9.16-5.32A10.22,10.22,0,0,1,234,390a19.46,19.46,0,0,1-5.61,1.62q-6.65,0-9.6-8.57l-.44-3.84v-2.51q.36-4.73,5.17-12.26,5.43-6.6,9.3-8.57h.3c1.79,0,2.88,1.43,3.25,4.29v.59q0,2.91-4.43,6.35-5,5.32-5,8.42l-.59,2.95q1,5.78,3.4,5.77h1.18c1.13-.55,2.12-2.07,3-4.58a20.92,20.92,0,0,1,.73-4.58,5.21,5.21,0,0,1,2.81-1.18,3.79,3.79,0,0,1,3.1,2.06q0,6.94,4,8.13l1.92.44q6.49-1.19,6.5-6.65,0-8.42-4.73-8.42H248c-2.37,0-3.55.25-3.55.74-.37,2.27-1.11,3.4-2.21,3.4l-.15.15H242q-3.1,0-5.32-7.39l-.29-2.51q0-7.27,7.09-11.82a10.87,10.87,0,0,1,4.72-1.32h1.19a10.93,10.93,0,0,1,5.46,1.77c0-2.37.39-3.55,1.18-3.55Z"/><path d="M278.93,346q4.67,0,7.24,6.36a10.52,10.52,0,0,1,.59,3.54,12.67,12.67,0,0,1,4.58-.89q10.2,0,14.33,12.41a34.76,34.76,0,0,1,.89,7.09q0,8-3.7,18.61a10.16,10.16,0,0,1-4.13,1c-2.37-.25-3.55-.84-3.55-1.77q4.44-10.2,4.43-17.88,0-8.26-5.76-10.48a11,11,0,0,0-3.1-.45h-.59c-2,0-4,1-5.76,3.1a13.13,13.13,0,0,1,7.39,7.54,18.21,18.21,0,0,1,1,5.61q0,8.56-8,11.37a13.78,13.78,0,0,1-4,.59h-.44q-9.53,0-16.39-10.63a23.49,23.49,0,0,1-2.37-9.75q0-5.46,1.48-5.46a5.39,5.39,0,0,1,2.51-.74q2.33,0,3.69,4.28a1.69,1.69,0,0,0,1,.44q2.91,0,8.42-7.09a32,32,0,0,0,1-5.61c-.17-1.67-.81-2.51-1.92-2.51-1.62,0-2.71,2.51-3.25,7.53h-.29q-7.25-.59-7.24-1.92a12.66,12.66,0,0,1-.74-4.13v-.3a5.52,5.52,0,0,1,1.33-3.84,14.86,14.86,0,0,1,3.25,1Q273.54,346,278.93,346Zm.74,24.19q-3.87,4.88-8.42,4.88h-.14a9.71,9.71,0,0,0,4.57,5.46,8.43,8.43,0,0,0,4,1.33h.59q3.44,0,4.88-4.43l.15-1.48q0-3.8-5-5.61Z"/><path d="M359.36,351.27H360q6,0,9.75,5.61a22.5,22.5,0,0,1,2.66,11.37,40.3,40.3,0,0,1-6.94,22.9,4.24,4.24,0,0,1-2.51.59h-.74q-4,0-4-2.22v-.29q3.1-2.73,5-9.16A53.31,53.31,0,0,0,364.68,369v-1.48q0-6.31-4.73-7.82l-1-.15q-2.66,0-6.2,5.46l-2.66,4.88h.29q5.25,0,7.54,7.09v1q0,9.17-6.8,12.7a13.39,13.39,0,0,1-3.69.74h-1.77q-6.79,0-13.74-7.53a27.51,27.51,0,0,1-5.91-17q0-8.75,5.76-11.67l3.1-.59q5.1,0,11.08,5.32l.15.89v.29a5,5,0,0,1-1.92,4.29h-.59q-.6,0-3.84-3a8.08,8.08,0,0,0-4-1.48q-2.81,0-2.81,6.21,0,8.71,7.83,14.62,4.06,2.07,5.47,2.07c2.95-.47,4.43-1.94,4.43-4.43l.15-.74c-.23-1.87-.82-2.81-1.78-2.81l-1.77,1.33q-5.17-1-5.17-3.69v-.74q0-2.07,4.88-10.93,3.17-7.38,5-8.12A11.42,11.42,0,0,1,359.36,351.27Z"/><path d="M391.19,343a20.33,20.33,0,0,1,16,7.09q7.53,8.58,7.53,17.88V370q0,10.59-10.93,18.61a20.26,20.26,0,0,1-10.49,3.1q-9.83,0-17.58-10.05a21.73,21.73,0,0,1-2.36-8.71v-1.92q0-6.42,7.24-10.05a18.15,18.15,0,0,1,6.2-1.32q5,0,8.42,4.87a7.72,7.72,0,0,1,1,3.1q0,1.41-1.92,1.77A2.72,2.72,0,0,0,393,371.5c0,1.68,1.08,2.61,3.25,2.81,1.4,0,2.34-1.18,2.8-3.55,0-.83-.83-2-2.51-3.39l-.29-2.22c.42-2.95,1.3-4.43,2.66-4.43H399q4.44,0,5.91,4.58a18.56,18.56,0,0,1,.74,4.58q0,7.13-7.09,10.63a14.29,14.29,0,0,1-3.84.74,10,10,0,0,1-10-6.79l-.3-1.78q0-2.4,2.51-5l-.15-.15h-.88q-3.44,0-4.73,5.76v.45q0,3.94,5.76,8.57a16.13,16.13,0,0,0,6.94,1.77q5.88,0,11.08-6.21a15.61,15.61,0,0,0,2.81-9.15q0-10.63-10.49-16.7a17.35,17.35,0,0,0-6.5-1.32q-5.5,0-7.09,3.84-1,4.58-1.92,4.57a4.23,4.23,0,0,1-2.95.74q-2.93,0-3.25-3.39v-1q0-6.72,8.12-10.93A21,21,0,0,1,391.19,343Z"/><path d="M432.85,346q4.65,0,7.24,6.36a10.78,10.78,0,0,1,.59,3.54,12.59,12.59,0,0,1,4.58-.89q10.19,0,14.32,12.41a34.07,34.07,0,0,1,.89,7.09q0,8-3.69,18.61a10.24,10.24,0,0,1-4.14,1q-3.54-.37-3.54-1.77,4.42-10.2,4.43-17.88,0-8.26-5.76-10.48a11.12,11.12,0,0,0-3.1-.45h-.6c-2,0-4,1-5.76,3.1a13.13,13.13,0,0,1,7.39,7.54,17.91,17.91,0,0,1,1,5.61q0,8.56-8,11.37a13.78,13.78,0,0,1-4,.59h-.44q-9.54,0-16.4-10.63a23.47,23.47,0,0,1-2.36-9.75q0-5.46,1.47-5.46a5.46,5.46,0,0,1,2.51-.74q2.34,0,3.7,4.28a1.66,1.66,0,0,0,1,.44q2.93,0,8.42-7.09a32,32,0,0,0,1-5.61c-.17-1.67-.81-2.51-1.92-2.51q-2.43,0-3.24,7.53h-.3q-7.25-.59-7.24-1.92a12.66,12.66,0,0,1-.74-4.13v-.3a5.57,5.57,0,0,1,1.33-3.84,14.86,14.86,0,0,1,3.25,1C426.6,348.35,429.25,346,432.85,346Zm.74,24.19q-3.88,4.88-8.42,4.88H425a9.73,9.73,0,0,0,4.58,5.46,8.37,8.37,0,0,0,4,1.33h.59q3.44,0,4.87-4.43l.15-1.48q0-3.8-5-5.61Z"/><path d="M450.65,328.81h.74q3.84,0,3.84,2.66.88,10.38.88,15.51c0,5-.44,7.54-1.33,7.54l-2.66.88h-.29c-1.18,0-2.27-.84-3.25-2.51l-.74-22.45C448.14,329.36,449.07,328.81,450.65,328.81Z"/></g></g></svg>